<svg width="21" height="21" viewBox="0 0 21 21" fill="none" xmlns="http://www.w3.org/2000/svg">
<path d="M10.5001 2.1665C9.40573 2.1665 8.3221 2.38205 7.31105 2.80084C6.30001 3.21963 5.38135 3.83346 4.60752 4.60728C3.04472 6.17008 2.16675 8.2897 2.16675 10.4998C2.16675 14.1832 4.55841 17.3082 7.86675 18.4165C8.28342 18.4832 8.41675 18.2248 8.41675 17.9998V16.5915C6.10841 17.0915 5.61675 15.4748 5.61675 15.4748C5.23341 14.5082 4.69175 14.2498 4.69175 14.2498C3.93341 13.7332 4.75008 13.7498 4.75008 13.7498C5.58341 13.8082 6.02508 14.6082 6.02508 14.6082C6.75008 15.8748 7.97508 15.4998 8.45008 15.2998C8.52508 14.7582 8.74175 14.3915 8.97508 14.1832C7.12508 13.9748 5.18341 13.2582 5.18341 10.0832C5.18341 9.15817 5.50008 8.4165 6.04175 7.82484C5.95842 7.6165 5.66675 6.74984 6.12508 5.62484C6.12508 5.62484 6.82508 5.39984 8.41675 6.47484C9.07508 6.2915 9.79175 6.19984 10.5001 6.19984C11.2084 6.19984 11.9251 6.2915 12.5834 6.47484C14.1751 5.39984 14.8751 5.62484 14.8751 5.62484C15.3334 6.74984 15.0417 7.6165 14.9584 7.82484C15.5001 8.4165 15.8167 9.15817 15.8167 10.0832C15.8167 13.2665 13.8667 13.9665 12.0084 14.1748C12.3084 14.4332 12.5834 14.9415 12.5834 15.7165V17.9998C12.5834 18.2248 12.7167 18.4915 13.1417 18.4165C16.4501 17.2998 18.8334 14.1832 18.8334 10.4998C18.8334 9.40549 18.6179 8.32185 18.1991 7.31081C17.7803 6.29976 17.1665 5.3811 16.3926 4.60728C15.6188 3.83346 14.7002 3.21963 13.6891 2.80084C12.6781 2.38205 11.5944 2.1665 10.5001 2.1665Z" fill="#8E9BAE"/>
</svg>
