<svg width="21" height="21" viewBox="0 0 21 21" fill="none" xmlns="http://www.w3.org/2000/svg">
<path d="M10.5001 7.89633C9.0665 7.89633 7.89658 9.06626 7.89658 10.4998C7.89658 11.9334 9.0665 13.1034 10.5001 13.1034C11.9337 13.1034 13.1036 11.9334 13.1036 10.4998C13.1036 9.06626 11.9337 7.89633 10.5001 7.89633ZM18.3087 10.4998C18.3087 9.42172 18.3185 8.35336 18.2579 7.27719C18.1974 6.02719 17.9122 4.91782 16.9981 4.00375C16.0821 3.08774 14.9747 2.80454 13.7247 2.74399C12.6466 2.68344 11.5782 2.69321 10.502 2.69321C9.42392 2.69321 8.35556 2.68344 7.27939 2.74399C6.02939 2.80454 4.92001 3.08969 4.00595 4.00375C3.08994 4.91977 2.80673 6.02719 2.74619 7.27719C2.68564 8.35532 2.69541 9.42368 2.69541 10.4998C2.69541 11.576 2.68564 12.6463 2.74619 13.7225C2.80673 14.9725 3.09189 16.0819 4.00595 16.9959C4.92197 17.912 6.02939 18.1952 7.27939 18.2557C8.35751 18.3163 9.42587 18.3065 10.502 18.3065C11.5802 18.3065 12.6485 18.3163 13.7247 18.2557C14.9747 18.1952 16.0841 17.91 16.9981 16.9959C17.9142 16.0799 18.1974 14.9725 18.2579 13.7225C18.3204 12.6463 18.3087 11.578 18.3087 10.4998ZM10.5001 14.5057C8.2833 14.5057 6.49423 12.7166 6.49423 10.4998C6.49423 8.28305 8.2833 6.49399 10.5001 6.49399C12.7169 6.49399 14.506 8.28305 14.506 10.4998C14.506 12.7166 12.7169 14.5057 10.5001 14.5057ZM14.67 7.26547C14.1524 7.26547 13.7345 6.84751 13.7345 6.32993C13.7345 5.81235 14.1524 5.39438 14.67 5.39438C15.1876 5.39438 15.6056 5.81235 15.6056 6.32993C15.6057 6.45283 15.5816 6.57455 15.5347 6.68813C15.4877 6.8017 15.4188 6.9049 15.3319 6.9918C15.245 7.07871 15.1418 7.14761 15.0282 7.19457C14.9146 7.24154 14.7929 7.26563 14.67 7.26547Z" fill="#8E9BAE"/>
</svg>
