<svg width="21" height="21" viewBox="0 0 21 21" fill="none" xmlns="http://www.w3.org/2000/svg">
<path d="M4.5195 2.39673C3.50353 2.39673 2.67993 3.23905 2.67993 4.2781C2.67993 5.31716 3.50353 6.15948 4.5195 6.15948C5.53546 6.15948 6.35906 5.31716 6.35906 4.2781C6.35906 3.23905 5.53546 2.39673 4.5195 2.39673Z" fill="#8E9BAE"/>
<path d="M2.78814 7.70884C2.72838 7.70884 2.67993 7.75839 2.67993 7.81951V19.3291C2.67993 19.3902 2.72838 19.4398 2.78814 19.4398H6.25085C6.31062 19.4398 6.35906 19.3902 6.35906 19.3291V7.81951C6.35906 7.75839 6.31062 7.70884 6.25085 7.70884H2.78814Z" fill="#8E9BAE"/>
<path d="M8.41505 7.70884C8.35529 7.70884 8.30684 7.75839 8.30684 7.81951V19.3291C8.30684 19.3902 8.35529 19.4398 8.41505 19.4398H11.8778C11.9375 19.4398 11.986 19.3902 11.986 19.3291V13.1316C11.986 12.6914 12.157 12.2691 12.4614 11.9578C12.7658 11.6465 13.1786 11.4716 13.6091 11.4716C14.0396 11.4716 14.4525 11.6465 14.7569 11.9578C15.0613 12.2691 15.2323 12.6914 15.2323 13.1316V19.3291C15.2323 19.3902 15.2807 19.4398 15.3405 19.4398H18.8032C18.8629 19.4398 18.9114 19.3902 18.9114 19.3291V11.6976C18.9114 9.54905 17.0843 7.8682 14.9941 8.06254C14.3494 8.12248 13.7121 8.28637 13.117 8.54722L11.986 9.04295V7.81951C11.986 7.75839 11.9375 7.70884 11.8778 7.70884H8.41505Z" fill="#8E9BAE"/>
</svg>
