<svg width="43" height="42" viewBox="0 0 43 42" fill="none" xmlns="http://www.w3.org/2000/svg">
<rect x="0.5" width="42" height="42" rx="15.8919" fill="#6F2FCE"/>
<path d="M22.0002 9.96924C19.8112 9.96924 17.6714 10.6183 15.8514 11.8345C14.0313 13.0506 12.6128 14.7791 11.7751 16.8014C10.9374 18.8238 10.7182 21.0491 11.1453 23.196C11.5723 25.3429 12.6264 27.3149 14.1742 28.8628C15.7221 30.4106 17.6941 31.4647 19.841 31.8917C21.9879 32.3188 24.2132 32.0996 26.2356 31.2619C28.2579 30.4242 29.9864 29.0057 31.2025 27.1856C32.4187 25.3656 33.0678 23.2258 33.0678 21.0368C33.0647 18.1025 31.8976 15.2892 29.8227 13.2143C27.7478 11.1394 24.9345 9.97234 22.0002 9.96924ZM22.0002 11.6719C22.8675 11.6719 24.5542 14.9773 24.5542 21.0368C24.5542 21.9137 24.5181 22.731 24.4553 23.4919C23.6944 23.5547 22.8771 23.5909 22.0002 23.5909C15.9407 23.5909 12.6353 21.9041 12.6353 21.0368C12.6381 18.554 13.6257 16.1736 15.3813 14.418C17.137 12.6623 19.5173 11.6748 22.0002 11.6719ZM12.9971 23.6185C15.1128 24.7242 18.5692 25.2936 22.0002 25.2936C22.7547 25.2936 23.5103 25.2659 24.2531 25.2116C23.7274 28.5925 22.6387 30.4017 22.0002 30.4017C19.9673 30.399 17.9902 29.7361 16.3665 28.5127C14.7429 27.2894 13.5604 25.5719 12.9971 23.6185Z" fill="white"/>
</svg>
