<svg width="21" height="21" viewBox="0 0 21 21" fill="none" xmlns="http://www.w3.org/2000/svg">
<path fill-rule="evenodd" clip-rule="evenodd" d="M10.4998 3.83325C11.2123 3.83325 11.9432 3.85159 12.6515 3.88159L13.4882 3.92159L14.289 3.96909L15.039 4.01992L15.724 4.07325C16.4675 4.12983 17.1672 4.44695 17.6998 4.96875C18.2324 5.49056 18.5638 6.18358 18.6357 6.92575L18.669 7.27992L18.7315 8.03825C18.7898 8.82408 18.8332 9.68075 18.8332 10.4999C18.8332 11.3191 18.7898 12.1758 18.7315 12.9616L18.669 13.7199L18.6357 14.0741C18.5638 14.8164 18.2323 15.5095 17.6995 16.0313C17.1667 16.5532 16.4668 16.8702 15.7232 16.9266L15.0398 16.9791L14.2898 17.0308L13.4882 17.0783L12.6515 17.1183C11.9347 17.1493 11.2173 17.1654 10.4998 17.1666C9.78236 17.1654 9.06498 17.1493 8.34817 17.1183L7.5115 17.0783L6.71067 17.0308L5.96067 16.9791L5.27567 16.9266C4.53218 16.87 3.8325 16.5529 3.29987 16.0311C2.76724 15.5093 2.43583 14.8163 2.364 14.0741L2.33067 13.7199L2.26817 12.9616C2.2047 12.1425 2.17079 11.3214 2.1665 10.4999C2.1665 9.68075 2.20984 8.82408 2.26817 8.03825L2.33067 7.27992L2.364 6.92575C2.4358 6.18371 2.7671 5.4908 3.29956 4.96901C3.83202 4.44722 4.5315 4.13002 5.27484 4.07325L5.959 4.01992L6.709 3.96909L7.51067 3.92159L8.34734 3.88159C9.06442 3.85052 9.78208 3.83441 10.4998 3.83325ZM8.83317 8.47908V12.5208C8.83317 12.9058 9.24984 13.1458 9.58317 12.9541L13.0832 10.9333C13.1593 10.8894 13.2226 10.8263 13.2666 10.7502C13.3106 10.6741 13.3337 10.5878 13.3337 10.4999C13.3337 10.412 13.3106 10.3257 13.2666 10.2496C13.2226 10.1736 13.1593 10.1104 13.0832 10.0666L9.58317 8.04659C9.50714 8.00269 9.42089 7.97958 9.33309 7.9796C9.2453 7.97961 9.15905 8.00274 9.08303 8.04667C9.00701 8.09059 8.9439 8.15375 8.90004 8.22981C8.85618 8.30586 8.83311 8.39212 8.83317 8.47992V8.47908Z" fill="#8E9BAE"/>
</svg>
