<svg width="1009" height="1009" viewBox="0 0 1009 1009" fill="none" xmlns="http://www.w3.org/2000/svg">
<rect width="1009" height="1009" rx="381.784" fill="#6F2FCE"/>
<path d="M504.5 238.615C451.913 238.615 400.507 254.209 356.782 283.425C313.058 312.641 278.978 354.166 258.854 402.751C238.73 451.335 233.465 504.795 243.724 556.372C253.983 607.949 279.306 655.325 316.491 692.51C353.676 729.694 401.052 755.017 452.628 765.277C504.205 775.536 557.666 770.27 606.25 750.146C654.834 730.022 696.36 695.943 725.575 652.218C754.791 608.494 770.385 557.087 770.385 504.5C770.311 434.006 742.274 366.42 692.427 316.573C642.58 266.726 574.994 238.69 504.5 238.615ZM504.5 279.521C525.336 279.521 565.858 358.928 565.858 504.5C565.858 525.567 564.989 545.201 563.48 563.481C545.201 564.989 525.566 565.858 504.5 565.858C358.928 565.858 279.52 525.337 279.52 504.5C279.588 444.853 303.313 387.668 345.49 345.49C387.667 303.313 444.852 279.588 504.5 279.521ZM288.213 566.523C339.038 593.086 422.076 606.764 504.5 606.764C522.626 606.764 540.778 606.099 558.623 604.795C545.993 686.018 519.84 729.48 504.5 729.48C455.661 729.415 408.165 713.49 369.158 684.101C330.152 654.712 301.745 613.45 288.213 566.523Z" fill="white"/>
</svg>
